<mxfile host="app.diagrams.net" modified="2023-04-04T22:43:46.768Z" agent="Mozilla/5.0 (X11; Ubuntu; Linux x86_64; rv:109.0) Gecko/20100101 Firefox/111.0" etag="2xz2oE58FNhp1joYSo-H" version="21.1.4" type="device">
  <diagram name="Страница 1" id="pfok_mU_8pHaaFKU8sq3">
    <mxGraphModel dx="1368" dy="795" grid="1" gridSize="10" guides="1" tooltips="1" connect="1" arrows="1" fold="1" page="1" pageScale="1" pageWidth="827" pageHeight="1169" math="0" shadow="0">
      <root>
        <mxCell id="0" />
        <mxCell id="1" parent="0" />
        <mxCell id="OnXiFmnDSX27BkpJTXma-1" value="&lt;b&gt;User&lt;/b&gt;&lt;br&gt;&lt;hr&gt;+Id : Guid&lt;br&gt;+Username : string&lt;br&gt;&lt;hr&gt;+ToString() : string" style="rounded=0;whiteSpace=wrap;html=1;fontSize=14;verticalAlign=top;align=left;" parent="1" vertex="1">
          <mxGeometry x="120" y="480" width="123" height="120" as="geometry" />
        </mxCell>
        <mxCell id="OnXiFmnDSX27BkpJTXma-2" value="&lt;font style=&quot;font-size: 14px;&quot;&gt;&lt;b&gt;Pump&lt;/b&gt;&lt;br&gt;&lt;hr&gt;+Speed : int&lt;br&gt;+State : bool&lt;br&gt;-isWorking : bool&lt;br&gt;-_tower : WaterTower&lt;br&gt;&lt;hr&gt;+PumpUpTower() : Task&lt;br&gt;+TurnOn() : void&lt;br&gt;+TurnOff() : void&lt;br&gt;+Disconnect() : void&lt;br&gt;+ToString() : void&lt;br&gt;&lt;/font&gt;" style="rounded=0;whiteSpace=wrap;html=1;verticalAlign=top;align=left;" parent="1" vertex="1">
          <mxGeometry x="600" y="480" width="240" height="210" as="geometry" />
        </mxCell>
        <mxCell id="OnXiFmnDSX27BkpJTXma-3" value="&lt;b&gt;Water Tower&lt;/b&gt;&lt;br&gt;&lt;hr&gt;+CurrentVolume : int&lt;br&gt;+ MaxVolume : int&lt;br&gt;&lt;hr&gt;+IncreaseWater(int volume) : int&lt;br&gt;+DecreaseWater(int volume) : int&lt;br&gt;+ToString() : string" style="rounded=0;whiteSpace=wrap;html=1;fontSize=14;align=left;verticalAlign=top;" parent="1" vertex="1">
          <mxGeometry x="310.5" y="480" width="226" height="150" as="geometry" />
        </mxCell>
        <mxCell id="OnXiFmnDSX27BkpJTXma-4" value="&lt;b&gt;Simulator&lt;/b&gt;&lt;br&gt;&lt;hr&gt;+LogEvent : EventHandler&lt;br&gt;-_tower : WaterTower&lt;br&gt;-_pump : Pump&lt;br&gt;-_logs : List&amp;lt;string&amp;gt;&lt;br&gt;-instance : Simulator&lt;br&gt;&lt;hr&gt;+GetInstance() : Simulator&lt;br&gt;+GetWater(int volume, User user) : void&lt;br&gt;+AddWater(int volume, User user) : void&lt;br&gt;+StopPump(User user) : void&lt;br&gt;+CheckWaterLevel() : void&lt;br&gt;+PumpInfo(User user) : void&lt;br&gt;+PrintLogs() : void&lt;br&gt;-Log(object? sender, string message) : void" style="rounded=0;whiteSpace=wrap;html=1;fontSize=14;align=left;verticalAlign=top;" parent="1" vertex="1">
          <mxGeometry x="280" y="70" width="287" height="280" as="geometry" />
        </mxCell>
        <mxCell id="OnXiFmnDSX27BkpJTXma-18" value="1" style="endArrow=open;html=1;endSize=12;startArrow=diamondThin;startSize=14;startFill=1;edgeStyle=orthogonalEdgeStyle;align=left;verticalAlign=bottom;rounded=0;exitX=0.75;exitY=1;exitDx=0;exitDy=0;entryX=0.5;entryY=0;entryDx=0;entryDy=0;" parent="1" source="OnXiFmnDSX27BkpJTXma-4" target="OnXiFmnDSX27BkpJTXma-2" edge="1">
          <mxGeometry x="-1" y="3" relative="1" as="geometry">
            <mxPoint x="330" y="400" as="sourcePoint" />
            <mxPoint x="490" y="400" as="targetPoint" />
            <Array as="points">
              <mxPoint x="495" y="410" />
              <mxPoint x="720" y="410" />
            </Array>
          </mxGeometry>
        </mxCell>
        <mxCell id="OnXiFmnDSX27BkpJTXma-19" value="1" style="endArrow=open;html=1;endSize=12;startArrow=diamondThin;startSize=14;startFill=1;edgeStyle=orthogonalEdgeStyle;align=left;verticalAlign=bottom;rounded=0;exitX=0.5;exitY=1;exitDx=0;exitDy=0;entryX=0.5;entryY=0;entryDx=0;entryDy=0;" parent="1" source="OnXiFmnDSX27BkpJTXma-4" target="OnXiFmnDSX27BkpJTXma-3" edge="1">
          <mxGeometry x="-1" y="3" relative="1" as="geometry">
            <mxPoint x="330" y="400" as="sourcePoint" />
            <mxPoint x="490" y="400" as="targetPoint" />
          </mxGeometry>
        </mxCell>
        <mxCell id="OnXiFmnDSX27BkpJTXma-20" value="" style="endArrow=open;endFill=1;endSize=12;html=1;rounded=0;exitX=0.25;exitY=1;exitDx=0;exitDy=0;entryX=0.5;entryY=0;entryDx=0;entryDy=0;" parent="1" source="OnXiFmnDSX27BkpJTXma-4" target="OnXiFmnDSX27BkpJTXma-1" edge="1">
          <mxGeometry width="160" relative="1" as="geometry">
            <mxPoint x="330" y="400" as="sourcePoint" />
            <mxPoint x="490" y="400" as="targetPoint" />
            <Array as="points">
              <mxPoint x="350" y="410" />
              <mxPoint x="182" y="410" />
            </Array>
          </mxGeometry>
        </mxCell>
      </root>
    </mxGraphModel>
  </diagram>
</mxfile>
